<svg xmlns="http://www.w3.org/2000/svg" width="108" height="108" viewBox="0 0 108 108">
  <!-- 深绿色圆角矩形背景 -->
  <path fill="#1D6E5A" d="M18,16h72a16,16 0,0 1,16 16v44a16,16 0,0 1,-16 16H18a16,16 0,0 1,-16 -16V32a16,16 0,0 1,16 -16z"/>
  
  <!-- 底部半透明的浅绿色山丘/弧形 -->
  <path fill="#53C49E" fill-opacity="0.42" d="M8,76c18,-26 40,-36 92,-49v49a10,10 0,0 1,-10 10H18a10,10 0,0 1,-10 -10z"/>
  
  <!-- 米白色的山峰/数据折线走势 -->
  <path fill="#F8F7F2" d="M24,72l18,-22 14,15 9,-11 19,18z"/>
  
  <!-- 黄色的太阳/高亮圆点 -->
  <circle cx="72" cy="34" r="9" fill="#E9C46A"/>
  
  <!-- 左上角半透明的白色装饰高光条 -->
  <path fill="#FFFFFF" fill-opacity="0.36" d="M22,24h42a5,5 0,0 1,0 10H22a5,5 0,0 1,0 -10z"/>
</svg>
